<svg xmlns="http://www.w3.org/2000/svg" xmlns:xlink="http://www.w3.org/1999/xlink" width="88.8" height="88.8" viewBox="0 0 88.8 88.8"><defs><style>.a{fill:#d8d8d8;}.b{fill:#a93bad;}.c{opacity:0.15;}.d{clip-path:url(#a);}.e{fill:rgba(0,0,0,0);}.f{fill:#14899e;}.g{fill:#1086e8;}.h{clip-path:url(#b);}.i{fill:#dbedf0;}.j{fill:#1d3f54;}.k{fill:#5a6570;}</style><clipPath id="a"><circle class="a" cx="44.4" cy="44.4" r="44.4"/></clipPath><clipPath id="b"><circle class="b" cx="35.52" cy="35.52" r="35.52"/></clipPath></defs><g class="c"><circle class="a" cx="44.4" cy="44.4" r="44.4"/><g class="d"><g transform="translate(-4.44 -8.88)"><rect class="e" width="93.24" height="103.6"/><rect class="f" width="93.24" height="103.6"/></g></g></g><g transform="translate(8.88 8.88)"><circle class="g" cx="35.52" cy="35.52" r="35.52"/><g class="h"><g transform="translate(-3.552 -7.104)"><rect class="g" width="74.592" height="82.88"/><rect class="f" width="74.592" height="82.88"/></g></g></g><g transform="translate(32.044 27.588)"><path class="i" d="M96,14.107V8h17.765l4.441,4.441V40.2H96V14.107Z" transform="translate(-93.224 -7.445)"/><path class="j" d="M336,8v5.552h5.552v-1.11L337.11,8Z" transform="translate(-316.57 -7.445)"/><g transform="translate(0 11.103)"><g transform="translate(0 16.655)"><path class="k" d="M56,400H78.206v1.11H56Z" transform="translate(-56 -400)"/></g><g transform="translate(0 11.103)"><path class="k" d="M56,320H78.206v1.11H56Z" transform="translate(-56 -320)"/></g><g transform="translate(0 5.552)"><path class="k" d="M56,240H67.1v1.11H56Z" transform="translate(-56 -240)"/></g><path class="k" d="M56,160H67.1v1.11H56Z" transform="translate(-56 -160)"/><g transform="translate(12.213 5.552)"><path class="k" d="M232,240h1.11v1.11H232Z" transform="translate(-232 -240)"/></g></g><path d="M106.713.163A.555.555,0,0,0,106.32,0H88.555A.555.555,0,0,0,88,.555V9.993h1.11V1.11h16.98l4.116,4.116V32.2H89.11V29.978H88v2.776a.555.555,0,0,0,.555.555h22.206a.555.555,0,0,0,.555-.555V5a.555.555,0,0,0-.163-.392Z" transform="translate(-85.779 0)"/><path d="M328,32v3.886a.555.555,0,0,0,.555.555h3.886v-1.11H329.11V32Z" transform="translate(-309.125 -29.779)"/><path d="M56,400H78.206v1.11H56Z" transform="translate(-56 -372.242)"/><path d="M56,320H78.206v1.11H56Z" transform="translate(-56 -297.794)"/><path d="M56,240H67.1v1.11H56Z" transform="translate(-56 -223.345)"/><path d="M56,160H67.1v1.11H56Z" transform="translate(-56 -148.897)"/><path d="M232,240h1.11v1.11H232Z" transform="translate(-219.787 -223.345)"/></g></svg>