<svg xmlns="http://www.w3.org/2000/svg" width="21.499" height="23.632" viewBox="0 0 21.499 23.632"><defs><style>.a{fill:#14899e;}</style></defs><path class="a" d="M16.106,10.23V5.758a.518.518,0,0,0-.143-.34L10.949.153A.5.5,0,0,0,10.589,0H2.64A2.649,2.649,0,0,0,0,2.665V17.7a2.632,2.632,0,0,0,2.64,2.645H8.915A6.773,6.773,0,1,0,16.106,10.23Zm-5.024-8.5L14.446,5.27H12.264a1.19,1.19,0,0,1-1.182-1.187ZM2.64,19.356A1.65,1.65,0,0,1,.985,17.7V2.665A1.664,1.664,0,0,1,2.64.985H10.1v3.1a2.171,2.171,0,0,0,2.167,2.172h2.857V10.1c-.148,0-.266-.02-.394-.02a6.872,6.872,0,0,0-4.492,1.694H3.98a.492.492,0,1,0,0,.985H9.319a7.836,7.836,0,0,0-.867,1.527H3.98a.493.493,0,1,0,0,.985H8.132a6.76,6.76,0,0,0,.3,4.088H2.64Zm12.082,3.3a5.787,5.787,0,1,1,5.787-5.787A5.793,5.793,0,0,1,14.722,22.651Zm0,0" transform="translate(0 0)"/><path class="a" d="M76.043,202.669h4.989a.493.493,0,1,0,0-.985H76.043a.493.493,0,1,0,0,.985Zm0,0" transform="translate(-72.064 -192.375)"/><path class="a" d="M249.3,283.368a.489.489,0,0,0-.719,0l-2.886,3.1a.491.491,0,0,0,.025.695.5.5,0,0,0,.7-.025l2.039-2.182v5.378a.493.493,0,1,0,.985,0v-5.378l2.024,2.182a.491.491,0,0,0,.719-.67Zm0,0" transform="translate(-234.226 -270.139)"/></svg>