<svg xmlns="http://www.w3.org/2000/svg" width="22.5" height="22.499" viewBox="0 0 22.5 22.499"><defs><style>.a{fill:#004480;}</style></defs><path class="a" d="M20.078,0H11.539a.659.659,0,0,0-.466.193L.708,10.558a2.425,2.425,0,0,0,0,3.425l7.809,7.809a2.406,2.406,0,0,0,1.712.707h0a2.4,2.4,0,0,0,1.713-.707L22.307,11.427a.659.659,0,0,0,.193-.466V2.422A2.425,2.425,0,0,0,20.078,0Zm1.1,10.688L11.01,20.859a1.109,1.109,0,0,1-1.561,0L1.64,13.051a1.105,1.105,0,0,1,0-1.561L11.812,1.318h8.266a1.1,1.1,0,0,1,1.1,1.1Zm0,0"/><path class="a" d="M334.724,85.078a2.071,2.071,0,1,0,1.465.607A2.058,2.058,0,0,0,334.724,85.078Zm.532,2.6a.753.753,0,1,1,.221-.532A.748.748,0,0,1,335.256,87.682Zm0,0" transform="translate(-318.034 -81.339)"/></svg>