<svg xmlns="http://www.w3.org/2000/svg" width="35.072" height="38.444" viewBox="0 0 35.072 38.444"><defs><style>.a{fill:#fff;}</style></defs><g transform="translate(-22.457)"><g transform="translate(22.457)"><g transform="translate(0)"><path class="a" d="M56.854,0H23.131a.675.675,0,0,0-.674.674V10.791a.675.675,0,0,0,.674.674H56.854a.675.675,0,0,0,.674-.674V.674A.675.675,0,0,0,56.854,0ZM56.18,10.117H23.806V1.349H56.18v8.768Z" transform="translate(-22.457)"/></g></g><g transform="translate(22.457)"><g transform="translate(0)"><path class="a" d="M35.272,0H23.131a.675.675,0,0,0-.674.674V10.791a.675.675,0,0,0,.674.674h12.14a.675.675,0,0,0,.674-.674V.674A.675.675,0,0,0,35.272,0ZM34.6,10.117H23.806V1.349H34.6Z" transform="translate(-22.457)"/></g></g><g transform="translate(25.155 5.396)"><g transform="translate(0)"><path class="a" d="M61.559,74.079l-2.023-2.023a.674.674,0,0,0-.954.954l2.023,2.023a.674.674,0,1,0,.954-.954Z" transform="translate(-58.384 -71.858)"/></g></g><g transform="translate(27.178 2.698)"><g transform="translate(0)"><path class="a" d="M91.2,36.126a.674.674,0,0,0-.954,0L85.53,40.847a.674.674,0,1,0,.954.954L91.2,37.079A.674.674,0,0,0,91.2,36.126Z" transform="translate(-85.332 -35.928)"/></g></g><g transform="translate(37.295 3.372)"><path class="a" d="M232.211,44.912H220.745a.674.674,0,1,0,0,1.349h11.466a.674.674,0,1,0,0-1.349Z" transform="translate(-220.071 -44.912)"/></g><g transform="translate(51.459 3.372)"><path class="a" d="M411.4,44.912h-2.023a.674.674,0,1,0,0,1.349H411.4a.674.674,0,1,0,0-1.349Z" transform="translate(-408.703 -44.912)"/></g><g transform="translate(42.016 6.745)"><path class="a" d="M295.088,89.825H283.622a.674.674,0,1,0,0,1.349h11.466a.674.674,0,0,0,0-1.349Z" transform="translate(-282.948 -89.825)"/></g><g transform="translate(37.295 6.745)"><path class="a" d="M222.769,89.825h-2.023a.674.674,0,1,0,0,1.349h2.023a.674.674,0,0,0,0-1.349Z" transform="translate(-220.071 -89.825)"/></g><g transform="translate(22.457 13.489)"><g transform="translate(0)"><path class="a" d="M56.854,179.649H23.131a.675.675,0,0,0-.674.674V190.44a.675.675,0,0,0,.674.674H56.854a.675.675,0,0,0,.674-.674V180.324A.675.675,0,0,0,56.854,179.649Zm-.674,10.117H23.806V181H56.18v8.768Z" transform="translate(-22.457 -179.649)"/></g></g><g transform="translate(22.457 13.489)"><g transform="translate(0)"><path class="a" d="M35.272,179.649H23.131a.675.675,0,0,0-.674.674V190.44a.675.675,0,0,0,.674.674h12.14a.675.675,0,0,0,.674-.674V180.324A.675.675,0,0,0,35.272,179.649ZM34.6,189.766H23.806V181H34.6Z" transform="translate(-22.457 -179.649)"/></g></g><g transform="translate(25.155 18.885)"><g transform="translate(0)"><path class="a" d="M61.559,253.728,59.535,251.7a.674.674,0,0,0-.954.954l2.023,2.023a.674.674,0,1,0,.954-.954Z" transform="translate(-58.384 -251.507)"/></g></g><g transform="translate(27.178 16.187)"><g transform="translate(0)"><path class="a" d="M91.2,215.775a.674.674,0,0,0-.954,0L85.53,220.5a.674.674,0,1,0,.954.954l4.721-4.721A.674.674,0,0,0,91.2,215.775Z" transform="translate(-85.332 -215.577)"/></g></g><g transform="translate(37.295 16.861)"><path class="a" d="M232.211,224.561H220.745a.674.674,0,1,0,0,1.349h11.466a.674.674,0,1,0,0-1.349Z" transform="translate(-220.071 -224.561)"/></g><g transform="translate(51.459 16.861)"><path class="a" d="M411.4,224.561h-2.023a.674.674,0,1,0,0,1.349H411.4a.674.674,0,1,0,0-1.349Z" transform="translate(-408.703 -224.561)"/></g><g transform="translate(42.016 20.234)"><path class="a" d="M295.088,269.474H283.622a.674.674,0,1,0,0,1.349h11.466a.674.674,0,0,0,0-1.349Z" transform="translate(-282.948 -269.474)"/></g><g transform="translate(37.295 20.234)"><path class="a" d="M222.769,269.474h-2.023a.674.674,0,1,0,0,1.349h2.023a.674.674,0,0,0,0-1.349Z" transform="translate(-220.071 -269.474)"/></g><g transform="translate(22.457 26.978)"><g transform="translate(0)"><path class="a" d="M56.854,359.3H23.131a.675.675,0,0,0-.674.674v10.117a.675.675,0,0,0,.674.674H56.854a.675.675,0,0,0,.674-.674V359.973A.675.675,0,0,0,56.854,359.3Zm-.674,10.117H23.806v-8.768H56.18v8.768Z" transform="translate(-22.457 -359.298)"/></g></g><g transform="translate(22.457 26.978)"><g transform="translate(0)"><path class="a" d="M35.272,359.3H23.131a.675.675,0,0,0-.674.674v10.117a.675.675,0,0,0,.674.674h12.14a.675.675,0,0,0,.674-.674V359.973A.675.675,0,0,0,35.272,359.3ZM34.6,369.415H23.806v-8.768H34.6Z" transform="translate(-22.457 -359.298)"/></g></g><g transform="translate(25.155 32.374)"><g transform="translate(0)"><path class="a" d="M61.559,433.377l-2.023-2.023a.674.674,0,0,0-.954.954l2.023,2.023a.674.674,0,1,0,.954-.954Z" transform="translate(-58.384 -431.156)"/></g></g><g transform="translate(27.178 29.676)"><g transform="translate(0)"><path class="a" d="M91.2,395.424a.674.674,0,0,0-.954,0l-4.721,4.721a.674.674,0,1,0,.954.954l4.721-4.721A.674.674,0,0,0,91.2,395.424Z" transform="translate(-85.332 -395.226)"/></g></g><g transform="translate(37.295 30.351)"><path class="a" d="M232.211,404.211H220.745a.674.674,0,1,0,0,1.349h11.466a.674.674,0,1,0,0-1.349Z" transform="translate(-220.071 -404.211)"/></g><g transform="translate(51.459 30.351)"><path class="a" d="M411.4,404.211h-2.023a.674.674,0,1,0,0,1.349H411.4a.674.674,0,1,0,0-1.349Z" transform="translate(-408.703 -404.211)"/></g><g transform="translate(42.016 33.723)"><path class="a" d="M295.088,449.123H283.622a.674.674,0,1,0,0,1.349h11.466a.674.674,0,0,0,0-1.349Z" transform="translate(-282.948 -449.123)"/></g><g transform="translate(37.295 33.723)"><path class="a" d="M222.769,449.123h-2.023a.674.674,0,1,0,0,1.349h2.023a.674.674,0,0,0,0-1.349Z" transform="translate(-220.071 -449.123)"/></g></g></svg>