<svg xmlns="http://www.w3.org/2000/svg" width="29.975" height="39.098" viewBox="0 0 29.975 39.098"><defs><style>.a{fill:#ccdaec;}.b{fill:#1d3f54;}.c{fill:#5a6570;}</style></defs><path class="a" d="M96,15.168V8h20.852l5.213,5.213V45.794H96V15.168Z" transform="translate(-92.742 -7.348)"/><path class="b" d="M336,8v6.516h6.516v-1.3L337.3,8Z" transform="translate(-313.193 -7.348)"/><g transform="translate(0 13.033)"><g transform="translate(0 19.549)"><path class="c" d="M56,400H82.065v1.3H56Z" transform="translate(-56 -400)"/></g><g transform="translate(0 13.033)"><path class="c" d="M56,320H82.065v1.3H56Z" transform="translate(-56 -320)"/></g><g transform="translate(0 6.516)"><path class="c" d="M56,240H69.033v1.3H56Z" transform="translate(-56 -240)"/></g><g transform="translate(0)"><path class="c" d="M56,160H69.033v1.3H56Z" transform="translate(-56 -160)"/></g><g transform="translate(14.336 6.516)"><path class="c" d="M232,240h1.3v1.3H232Z" transform="translate(-232 -240)"/></g></g><path d="M109.964.191A.652.652,0,0,0,109.5,0H88.652A.652.652,0,0,0,88,.652V11.729h1.3V1.3h19.931l4.831,4.831v31.66H89.3V35.188H88v3.258a.652.652,0,0,0,.652.652h26.065a.652.652,0,0,0,.652-.652V5.865a.652.652,0,0,0-.191-.461Z" transform="translate(-85.393)"/><path d="M328,32v4.561a.652.652,0,0,0,.652.652h4.561v-1.3H329.3V32Z" transform="translate(-305.845 -29.393)"/><path d="M56,400H82.065v1.3H56Z" transform="translate(-56 -367.419)"/><path d="M56,320H82.065v1.3H56Z" transform="translate(-56 -293.935)"/><path d="M56,240H69.033v1.3H56Z" transform="translate(-56 -220.451)"/><path d="M56,160H69.033v1.3H56Z" transform="translate(-56 -146.967)"/><path d="M232,240h1.3v1.3H232Z" transform="translate(-217.664 -220.451)"/></svg>