<svg xmlns="http://www.w3.org/2000/svg" width="33.524" height="39.284" viewBox="0 0 33.524 39.284"><defs><style>.a{fill:#fff;}</style></defs><g transform="translate(-1.401)"><g transform="translate(1.401)"><path class="a" d="M33.415,0H2.913A1.514,1.514,0,0,0,1.4,1.512V37.772a1.511,1.511,0,0,0,1.512,1.512h30.5a1.511,1.511,0,0,0,1.512-1.512V1.512A1.511,1.511,0,0,0,33.415,0ZM31.9,36.259H4.426V3.027H31.9V36.259Z" transform="translate(-1.401)"/><path class="a" d="M10.482,4.668H4.946V10.2H10.48V4.668ZM9.808,6.505,7.35,8.963a.166.166,0,0,1-.236,0l-1.5-1.5a.175.175,0,0,1,0-.24l.36-.353a.165.165,0,0,1,.238,0L7.235,7.89,9.214,5.911a.171.171,0,0,1,.24,0l.355.358A.164.164,0,0,1,9.808,6.505Z" transform="translate(2.338 4.924)"/><rect class="a" width="12.66" height="3.043" transform="translate(13.975 10.837)"/><path class="a" d="M10.482,8.18H4.946v5.532H10.48V8.18Zm-.674,1.835L7.35,12.473a.166.166,0,0,1-.236,0l-1.5-1.5a.173.173,0,0,1,0-.238l.36-.355a.169.169,0,0,1,.238,0L7.235,11.4,9.214,9.421a.171.171,0,0,1,.24,0l.355.355A.167.167,0,0,1,9.808,10.015Z" transform="translate(2.338 8.628)"/><rect class="a" width="12.66" height="3.043" transform="translate(13.975 18.052)"/><rect class="a" width="5.534" height="5.534" transform="translate(7.286 24.183)"/><rect class="a" width="12.66" height="3.041" transform="translate(13.975 25.431)"/></g></g></svg>